<svg xmlns="http://www.w3.org/2000/svg" viewBox="0 0 320 80" width="320" height="80">
  <defs>
    <linearGradient id="bg" x1="0%" y1="0%" x2="100%" y2="100%">
      <stop offset="0%" style="stop-color:#0D1F1A"/>
      <stop offset="100%" style="stop-color:#0A1510"/>
    </linearGradient>
    <linearGradient id="green" x1="0%" y1="0%" x2="100%" y2="100%">
      <stop offset="0%" style="stop-color:#00E896"/>
      <stop offset="100%" style="stop-color:#00B874"/>
    </linearGradient>
    <linearGradient id="gold" x1="0%" y1="0%" x2="100%" y2="100%">
      <stop offset="0%" style="stop-color:#F7C948"/>
      <stop offset="100%" style="stop-color:#E5A800"/>
    </linearGradient>
  </defs>

  <rect x="0" y="0" width="80" height="80" rx="16" fill="url(#bg)"/>

  <g opacity="0.07" stroke="#00E896" stroke-width="0.5">
    <line x1="0" y1="26" x2="80" y2="26"/>
    <line x1="0" y1="53" x2="80" y2="53"/>
    <line x1="26" y1="0" x2="26" y2="80"/>
    <line x1="53" y1="0" x2="53" y2="80"/>
  </g>

  <rect x="22" y="14" width="36" height="44" rx="3" fill="none" stroke="#00E896" stroke-width="0.7" opacity="0.15"/>

  <rect x="24" y="20" width="7" height="32" rx="1.5" fill="url(#green)"/>

  <polygon points="31,36 50,20 55,20 55,25.5 37,40" fill="url(#green)"/>

  <polygon points="31,44 50,60 55,60 55,54.5 37,40" fill="url(#green)"/>

  <rect x="22" y="39" width="36" height="2" rx="1" fill="url(#gold)" opacity="0.8"/>

  <circle cx="17" cy="17" r="1.5" fill="#00E896" opacity="0.35"/>
  <circle cx="63" cy="17" r="1.5" fill="#00E896" opacity="0.35"/>
  <circle cx="17" cy="63" r="1.5" fill="#00E896" opacity="0.35"/>
  <circle cx="63" cy="63" r="1.5" fill="#00E896" opacity="0.35"/>

  <text x="96" y="44"
    font-family="'Courier New', 'Courier', monospace"
    font-size="32"
    font-weight="700"
    letter-spacing="4"
    fill="#F0FFF8">KIRIKU</text>

  <text x="97" y="62"
    font-family="'Courier New', 'Courier', monospace"
    font-size="9.5"
    font-weight="400"
    letter-spacing="3.5"
    fill="#00E896"
    opacity="0.75">EXTRACTION_PLATFORM</text>
</svg>
